<?xml version="1.0" encoding="UTF-8"?>
<svg xmlns="http://www.w3.org/2000/svg" xmlns:xlink="http://www.w3.org/1999/xlink" width="1024pt" height="1024pt" viewBox="0 0 1024 1024" version="1.2">
<g id="surface1">
<path style=" stroke:none;fill-rule:nonzero;fill:rgb(100%,100%,100%);fill-opacity:1;" d="M 1024 512 C 1024 229.230469 794.769531 0 512 0 C 229.230469 0 0 229.230469 0 512 C 0 767.554688 187.230469 979.371094 432 1017.78125 L 432 660 L 302 660 L 302 512 L 432 512 L 432 399.199219 C 432 270.878906 508.4375 200 625.390625 200 C 681.40625 200 740 210 740 210 L 740 336 L 675.4375 336 C 611.835938 336 592 375.46875 592 415.957031 L 592 512 L 734 512 L 711.300781 660 L 592 660 L 592 1017.78125 C 836.769531 979.371094 1024 767.554688 1024 512 "/>
</g>
</svg>
